<svg width="103" height="103" viewBox="0 0 103 103" fill="none" xmlns="http://www.w3.org/2000/svg">
<path d="M52.7539 16.1235L53.195 12.524L51.9415 12.3704L51.9936 11.9449L55.0067 12.3141L54.9545 12.7396L53.701 12.586L53.26 16.1855L52.7539 16.1235Z" fill="white"/>
<path d="M60.4306 17.1687L61.9234 13.3984L62.3973 13.586L61.7362 15.2558L63.4706 15.9425L64.1317 14.2727L64.6057 14.4604L63.1129 18.2308L62.6389 18.0431L63.3107 16.3464L61.5763 15.6597L60.9045 17.3564L60.4306 17.1687Z" fill="white"/>
<path d="M68.9795 20.7544L71.3819 17.4874L73.5147 19.0558L73.2608 19.4012L71.5386 18.1348L70.7287 19.2362L72.0401 20.2006L71.7828 20.5506L70.4713 19.5863L69.6442 20.711L71.3664 21.9774L71.1124 22.3228L68.9795 20.7544Z" fill="white"/>
<path d="M80.6407 31.9908C80.2379 31.2603 80.4145 30.5609 81.1704 30.1441L81.3479 30.0462L81.5885 30.4824L81.4516 30.558C80.9138 30.8545 80.756 31.312 81.0329 31.8142C81.2931 32.286 81.7609 32.3786 82.319 32.0709L84.6677 30.7757L84.9139 31.2221L82.5499 32.5257C81.7941 32.9425 81.066 32.7619 80.6771 32.0567L80.6407 31.9908Z" fill="white"/>
<path d="M84.6034 40.1663C84.3711 39.2391 84.8161 38.5125 85.867 38.2492L86.6368 38.0563C87.6876 37.793 88.4171 38.2254 88.6494 39.1526L88.6747 39.2537C88.907 40.1809 88.469 40.9118 87.4182 41.1751L86.6484 41.368C85.5919 41.6327 84.8625 41.2003 84.6288 40.2675L84.6034 40.1663ZM85.0319 40.1127C85.2009 40.787 85.7364 41.0649 86.5343 40.865L87.2761 40.6792C88.074 40.4792 88.4152 39.9817 88.2462 39.3074C88.0773 38.633 87.5432 38.3607 86.7453 38.5607L86.0035 38.7465C85.2056 38.9464 84.863 39.4384 85.0319 40.1127Z" fill="white"/>
<path d="M86.3424 49.2871C86.3592 48.3951 86.9375 47.8381 87.8758 47.8558L90.4822 47.9048L90.4726 48.4145L87.8894 48.3659C87.1886 48.3527 86.782 48.7101 86.7699 49.353C86.758 49.9902 87.1506 50.3684 87.8515 50.3816L90.4347 50.4302L90.4252 50.9341L87.813 50.8849C86.8805 50.8674 86.3235 50.2949 86.3403 49.3971L86.3424 49.2871Z" fill="white"/>
<path d="M86.0745 57.1918L89.9747 58.3021L89.5702 59.7229C89.3498 60.4974 88.8265 60.8122 88.1411 60.6171L88.0687 60.5965C87.5338 60.4442 87.2303 60.0506 87.2465 59.5071L85.3148 59.8606L85.4654 59.3313L87.3407 58.9858L87.5802 58.1445L85.9365 57.6765L86.0745 57.1918ZM89.1738 59.5498L89.4244 58.6695L87.9925 58.2618L87.7419 59.1422C87.6007 59.638 87.7809 59.9784 88.2266 60.1053L88.2545 60.1133C88.7002 60.2402 89.0326 60.0457 89.1738 59.5498Z" fill="white"/>
<path d="M83.5228 65.6885L87.0081 67.7614L86.7238 68.2394L82.9354 68.1835L85.7614 69.8576L85.5245 70.2559L82.0392 68.1829L82.3235 67.705L86.1149 67.7559L83.2859 66.0868L83.5228 65.6885Z" fill="white"/>
<path d="M78.6152 73.5805L81.4625 76.4679L79.5775 78.3268L79.2765 78.0215L80.7986 76.5206L79.8386 75.5471L78.6795 76.6901L78.3745 76.3808L79.5335 75.2378L78.5533 74.2437L77.0312 75.7446L76.7302 75.4394L78.6152 73.5805Z" fill="white"/>
<path d="M71.414 80.1422L72.1879 81.468L74.7441 82.8938L74.2437 83.1858L72.1705 82.0013L72.1975 84.3803L71.7322 84.6519L71.7476 81.725L70.9737 80.3992L71.414 80.1422Z" fill="white"/>
<path d="M58.2979 85.7631L58.775 89.7901L58.2688 89.8501L57.7917 85.8231L58.2979 85.7631Z" fill="white"/>
<path d="M50.1189 86.3603C51.0177 86.4546 51.544 86.935 51.5219 87.7015L51.0321 87.6502C51.007 87.1117 50.6279 86.8389 50.0748 86.7809C49.4986 86.7205 49.1713 86.9542 49.1326 87.3229C49.1012 87.6225 49.2587 87.8429 49.6572 88.0419L50.4997 88.4506C51.0483 88.7178 51.298 89.0585 51.2425 89.5886C51.1784 90.1993 50.6634 90.6113 49.828 90.5237C48.9638 90.4331 48.4703 89.9736 48.5072 89.2319L48.997 89.2833C48.9981 89.7727 49.3075 90.0439 49.8721 90.1031C50.3964 90.1581 50.6956 89.9157 50.7267 89.5637C50.762 89.2819 50.6155 89.0685 50.2503 88.8846L49.4302 88.4841C48.8373 88.1948 48.5658 87.8401 48.6214 87.3101C48.6878 86.6763 49.2316 86.2673 50.1189 86.3603Z" fill="white"/>
<path d="M35.7771 82.8716L33.9164 85.9844L35.0004 86.6323L34.7804 87.0003L32.1749 85.4428L32.3949 85.0748L33.4788 85.7228L35.3395 82.6101L35.7771 82.8716Z" fill="white"/>
<path d="M29.1739 78.7943L26.2881 81.6433L25.93 81.2805L27.2079 80.0188L25.8974 78.6914L24.6194 79.9531L24.2613 79.5903L27.147 76.7413L27.5052 77.1041L26.2066 78.3862L27.5171 79.7136L28.8157 78.4315L29.1739 78.7943Z" fill="white"/>
<path d="M22.7909 72.0711L19.2787 74.098L17.9554 71.805L18.3267 71.5908L19.3952 73.4422L20.5793 72.7589L19.7656 71.3489L20.1419 71.1318L20.9556 72.5417L22.1648 71.8438L21.0963 69.9924L21.4676 69.7781L22.7909 72.0711Z" fill="white"/>
<path d="M16.6855 58.1824L12.6455 58.5324L12.518 57.0607C12.4485 56.2585 12.8255 55.7781 13.5354 55.7166L13.6105 55.7101C14.1645 55.6621 14.5883 55.9219 14.7665 56.4356L16.446 55.4179L16.4935 55.9662L14.8639 56.9563L14.9394 57.8278L16.642 57.6803L16.6855 58.1824ZM12.9501 57.0814L13.0291 57.9933L14.5123 57.8648L14.4334 56.9529C14.3889 56.4393 14.0994 56.1852 13.6377 56.2252L13.6088 56.2277C13.1471 56.2677 12.9056 56.5678 12.9501 57.0814Z" fill="white"/>
<path d="M16.0725 49.2855L12.0713 48.6261L12.5018 46.0139L12.9248 46.0836L12.5772 48.1928L13.9261 48.4151L14.1908 46.8089L14.6195 46.8796L14.3548 48.4858L15.7324 48.7128L16.08 46.6036L16.503 46.6733L16.0725 49.2855Z" fill="white"/>
<path d="M17.8275 40.036L13.7407 39.2058L13.9608 38.7332L17.4397 39.5103L14.6091 37.3416L14.8684 36.785L18.3578 37.567L15.5142 35.3987L15.7197 34.9576L18.987 37.547L18.7253 38.1088L15.2723 37.3311L18.0868 39.4794L17.8275 40.036Z" fill="white"/>
<path d="M21.8509 31.7235L19.7132 27.9901L20.1174 27.5201L24.1287 29.075L23.7698 29.4923L22.6735 29.0613L21.5818 30.3306L22.1758 31.3458L21.8509 31.7235ZM21.3556 29.9451L22.2584 28.8953L20.281 28.1117L21.3556 29.9451Z" fill="white"/>
<path d="M28.1194 24.6759L25.8031 21.3473L27.0157 20.5035C27.6766 20.0436 28.281 20.1312 28.688 20.716L28.731 20.7779C29.0487 21.2343 29.0345 21.7312 28.6779 22.1417L30.397 23.0909L29.9453 23.4052L28.2749 22.4856L27.5569 22.9852L28.533 24.388L28.1194 24.6759ZM27.213 20.8885L26.4617 21.4113L27.3121 22.6334L28.0634 22.1105C28.4866 21.8161 28.5626 21.4385 28.2979 21.0581L28.2813 21.0343C28.0166 20.6539 27.6362 20.594 27.213 20.8885Z" fill="white"/>
<path d="M35.4681 19.7143L34.076 15.9056L35.4689 15.3965C36.3558 15.0724 37.1067 15.4393 37.4706 16.435L37.7172 17.1097C38.0851 18.1163 37.7479 18.8811 36.861 19.2052L35.4681 19.7143ZM35.7997 19.1367L36.654 18.8245C37.296 18.5898 37.5114 18.0485 37.229 17.2758L36.9943 16.6338C36.7119 15.8612 36.1982 15.5864 35.5562 15.821L34.7019 16.1333L35.7997 19.1367Z" fill="white"/>
<path fill-rule="evenodd" clip-rule="evenodd" d="M83.5026 17.3335C83.3149 17.1556 83.1256 16.9791 82.9349 16.8042C74.6066 9.16688 63.5045 4.5057 51.3138 4.5057C39.1231 4.50571 28.0211 9.16689 19.6927 16.8042C19.502 16.9791 19.3128 17.1556 19.125 17.3335C18.9372 17.5115 18.7509 17.6911 18.5661 17.8721C19.1476 18.4861 20.1163 18.522 20.7419 17.9483C28.7952 10.5632 39.5266 6.05803 51.3138 6.05803C63.101 6.05803 73.8325 10.5632 81.8857 17.9483C82.5113 18.522 83.48 18.4861 84.0616 17.8721C83.8767 17.6911 83.6904 17.5115 83.5026 17.3335ZM84.7465 18.5571C84.1326 19.1387 84.0967 20.1074 84.6703 20.7329C92.0555 28.7862 96.5607 39.5176 96.5607 51.3049C96.5607 63.0921 92.0555 73.8235 84.6703 81.8768C84.0967 82.5024 84.1326 83.4711 84.7466 84.0526C84.9276 83.8678 85.1072 83.6815 85.2852 83.4937C85.4631 83.3059 85.6396 83.1166 85.8144 82.926C93.4518 74.5976 98.113 63.4956 98.113 51.3049C98.113 39.1141 93.4518 28.0121 85.8144 19.6838C85.6396 19.4931 85.4631 19.3038 85.2852 19.1161C85.1072 18.9283 84.9276 18.7419 84.7465 18.5571ZM84.0616 84.7376C83.48 84.1237 82.5113 84.0877 81.8857 84.6614C73.8325 92.0465 63.101 96.5517 51.3138 96.5517C39.5266 96.5517 28.7952 92.0465 20.7419 84.6614C20.1163 84.0877 19.1476 84.1237 18.5661 84.7376C18.7509 84.9186 18.9372 85.0982 19.125 85.2762C19.3128 85.4542 19.502 85.6306 19.6927 85.8055C28.0211 93.4428 39.1231 98.104 51.3138 98.104C63.5045 98.104 74.6066 93.4428 82.9349 85.8055C83.1256 85.6306 83.3149 85.4542 83.5026 85.2762C83.6904 85.0982 83.8767 84.9186 84.0616 84.7376ZM17.8811 84.0526C18.495 83.4711 18.531 82.5024 17.9573 81.8768C10.5722 73.8235 6.06699 63.0921 6.06699 51.3049C6.06699 39.5176 10.5722 28.7862 17.9573 20.7329C18.531 20.1074 18.495 19.1387 17.8811 18.5571C17.7 18.7419 17.5205 18.9283 17.3425 19.1161C17.1645 19.3038 16.9881 19.4931 16.8132 19.6838C9.17585 28.0121 4.51467 39.1142 4.51467 51.3049C4.51467 63.4956 9.17585 74.5976 16.8132 82.926C16.9881 83.1167 17.1645 83.3059 17.3425 83.4937C17.5205 83.6815 17.7 83.8678 17.8811 84.0526Z" fill="white"/>
<path d="M51.7067 36.4544H51.4378V30.7729H51.7067V36.4544ZM51.7067 66.7307H51.4378V72.4123H51.7067V66.7307ZM72.3958 51.4581H66.7139V51.727H72.3958V51.4581ZM36.4332 51.4581H30.7514V51.727H36.4332V51.4581ZM64.9822 64.8109L63.7856 63.6144L63.5947 63.8053L64.7913 65.0018L64.9822 64.8109ZM39.5605 39.3906L38.3639 38.1941L38.173 38.385L39.3696 39.5815L39.5605 39.3906ZM39.5605 63.7945L39.3696 63.6036L38.173 64.8002L38.3639 64.9911L39.5605 63.7945ZM64.9822 38.3742L64.7913 38.1833L63.5974 39.3772L63.7883 39.5681L64.9822 38.3742Z" fill="white"/>
<path d="M58.8321 46.5792V56.1864C58.8321 57.6169 57.6732 58.7784 56.2399 58.7784H46.6322L48.4714 56.9393H55.7183L47.8449 49.0663L49.1168 47.7945L56.9875 55.6648V48.421L58.8294 46.5792H58.8321ZM45.3011 43.9764L44.0265 45.2509L45.2984 46.5227L46.573 45.2482L45.3011 43.9764Z" fill="white"/>
</svg>
